# xmcd
#
# Track frame offsets:
#	150
#	22649
#	43003
#	68442
#	86033
#	103183
#	118449
#	140113
#	154542
#	172164
#	188454
#	204296
#	220159
#	244155
#
# Disc length: 3535 seconds
# Revision: 0
# Processed by: cddbd v1.5.2PL0 Copyright (c) Steve Scherf et al.
# Submitted via: dBpowerAMP V12.0
#
DISCID=bf0dcd0e
DTITLE=Barbara Nesbitt - a million stories
DYEAR=2007
DGENRE=Americana
TTITLE0=A Million Stories
TTITLE1=Many Miles to Go
TTITLE2=Don't Bother
TTITLE3=Everything I See
TTITLE4=Three Between Us
TTITLE5=It Is What It Is
TTITLE6=Fly
TTITLE7=Summertime
TTITLE8=Just Give Me Tonight
TTITLE9=Flicker
TTITLE10=Stranger Things
TTITLE11=Horrible Moon
TTITLE12=Mile High Monkey
TTITLE13=Broken Girl
EXTD=
EXTT0=
EXTT1=
EXTT2=
EXTT3=
EXTT4=
EXTT5=
EXTT6=
EXTT7=
EXTT8=
EXTT9=
EXTT10=
EXTT11=
EXTT12=
EXTT13=
PLAYORDER=
